
<svg width="34px" height="34px" viewBox="0 0 34 34" version="1.1" xmlns="http://www.w3.org/2000/svg" xmlns:xlink="http://www.w3.org/1999/xlink">
    <!-- Generator: Sketch 39.1 (31720) - http://www.bohemiancoding.com/sketch -->
    <desc>Created with Sketch.</desc>
    <defs></defs>
    <path d="M27.38,2.006 C23.909,5.478 20.438,8.949 16.967,12.421 C13.518,8.972 10.07,5.523 6.62,2.073 C3.487,-1.059 -1.365,3.793 1.767,6.926 C5.215,10.376 8.664,13.825 12.114,17.274 C8.665,20.723 5.216,24.172 1.767,27.622 C-1.366,30.755 3.487,35.608 6.62,32.476 C10.069,29.027 13.517,25.578 16.967,22.128 C20.438,25.599 23.909,29.071 27.38,32.542 C30.513,35.675 35.365,30.821 32.234,27.69 C28.762,24.217 25.291,20.747 21.82,17.274 C25.291,13.802 28.762,10.331 32.234,6.859 C35.365,3.726 30.513,-1.126 27.38,2.006 L27.38,2.006 L27.38,2.006 Z" id="Shape" stroke="none" fill="#FFFFFF" fill-rule="evenodd"></path>
</svg>
